# xmcd
#
# Track frame offsets:
#	150
#	19633
#	29555
#	41910
#	54462
#	81304
#	91596
#	100622
#	110206
#	119321
#	130893
#	147996
#	161203
#	175772
#	189316
#	199946
#	216522
#
# Disc length: 3064 seconds
#
# Revision: 0
# Processed by: cddbd v1.5.2PL0 Copyright (c) Steve Scherf et al.
# Submitted via: EZCDAudioConverter 8.3.2.1
#
DISCID=f40bf611
DTITLE=Various Artist - Variété Internationale, L'Intégrale 10 CD
DYEAR=2007
DGENRE=Variétés
TTITLE0=The Caravans - Amazing Grace
TTITLE1=The Pilgrim Travelers - Every Time I Feel The Spirit
TTITLE2=The Soul Stirrers - By And By
TTITLE3=The Staple Singers - Will The Circle Be Unbroken
TTITLE4=Mahalia Jackson - Come On Children Let Us Sing
TTITLE5=The Swan Silverstones - He Saved My Soul
TTITLE6=Sister Rosetta Tharpe - Seeking For Me
TTITLE7=The Argo Gospel Singers - Swing Down The Chariot
TTITLE8=The Caravans - Nobody Knows Like The Lord
TTITLE9=Marion Williams and The Stars Of Faith - Jesus Will Help Us
TTITLE10=The Five Blind Boys Of Mississippi - Precious Lord
TTITLE11=Marion Williams and The Stars Of Faith - Just Can't Help It
TTITLE12=The Five Blind Boys Of Mississippi - My Robe Will Fit Me
TTITLE13=The Harmonizing Four - Go Down Moses
TTITLE14=The Highway QC'S - Pray
TTITLE15=The Gospel Harmonettes - Step By Step
TTITLE16=The Sallie Martin Singers - Closer To Jesus
EXTD=
EXTT0=
EXTT1=
EXTT2=
EXTT3=
EXTT4=
EXTT5=
EXTT6=
EXTT7=
EXTT8=
EXTT9=
EXTT10=
EXTT11=
EXTT12=
EXTT13=
EXTT14=
EXTT15=
EXTT16=
PLAYORDER=
